<mxfile host="app.diagrams.net" agent="Mozilla/5.0 (X11; Linux x86_64; rv:128.0) Gecko/20100101 Firefox/128.0" version="26.0.16">
  <diagram id="C5RBs43oDa-KdzZeNtuy" name="Page-1">
    <mxGraphModel dx="863" dy="447" grid="1" gridSize="10" guides="1" tooltips="1" connect="1" arrows="1" fold="1" page="1" pageScale="1" pageWidth="827" pageHeight="1169" math="0" shadow="0">
      <root>
        <mxCell id="WIyWlLk6GJQsqaUBKTNV-0" />
        <mxCell id="WIyWlLk6GJQsqaUBKTNV-1" parent="WIyWlLk6GJQsqaUBKTNV-0" />
        <mxCell id="mCqznvlErVC9nx65i13s-21" style="edgeStyle=orthogonalEdgeStyle;rounded=0;orthogonalLoop=1;jettySize=auto;html=1;exitX=0.5;exitY=0;exitDx=0;exitDy=0;entryX=0.5;entryY=0;entryDx=0;entryDy=0;" edge="1" parent="WIyWlLk6GJQsqaUBKTNV-1" source="mCqznvlErVC9nx65i13s-11" target="mCqznvlErVC9nx65i13s-12">
          <mxGeometry relative="1" as="geometry" />
        </mxCell>
        <mxCell id="mCqznvlErVC9nx65i13s-24" value="&lt;div&gt;BUTTON_ON&lt;/div&gt;" style="edgeLabel;html=1;align=center;verticalAlign=middle;resizable=0;points=[];" vertex="1" connectable="0" parent="mCqznvlErVC9nx65i13s-21">
          <mxGeometry x="0.0065" y="1" relative="1" as="geometry">
            <mxPoint as="offset" />
          </mxGeometry>
        </mxCell>
        <mxCell id="mCqznvlErVC9nx65i13s-11" value="&lt;div&gt;RED_OFF&lt;/div&gt;&lt;div&gt;GREEN_OFF&lt;br&gt;&lt;/div&gt;&lt;div&gt;&lt;br&gt;&lt;/div&gt;&lt;div&gt;&lt;br&gt;&lt;/div&gt;&lt;div&gt;estado = 0&lt;br&gt;&lt;/div&gt;" style="ellipse;whiteSpace=wrap;html=1;aspect=fixed;" vertex="1" parent="WIyWlLk6GJQsqaUBKTNV-1">
          <mxGeometry x="130" y="40" width="150" height="150" as="geometry" />
        </mxCell>
        <mxCell id="mCqznvlErVC9nx65i13s-20" style="edgeStyle=orthogonalEdgeStyle;rounded=0;orthogonalLoop=1;jettySize=auto;html=1;exitX=1;exitY=0.5;exitDx=0;exitDy=0;entryX=1;entryY=0.5;entryDx=0;entryDy=0;" edge="1" parent="WIyWlLk6GJQsqaUBKTNV-1" source="mCqznvlErVC9nx65i13s-12" target="mCqznvlErVC9nx65i13s-15">
          <mxGeometry relative="1" as="geometry" />
        </mxCell>
        <mxCell id="mCqznvlErVC9nx65i13s-25" value="&lt;div&gt;BUTTON_ON&lt;/div&gt;" style="edgeLabel;html=1;align=center;verticalAlign=middle;resizable=0;points=[];" vertex="1" connectable="0" parent="mCqznvlErVC9nx65i13s-20">
          <mxGeometry x="0.0896" y="-1" relative="1" as="geometry">
            <mxPoint as="offset" />
          </mxGeometry>
        </mxCell>
        <mxCell id="mCqznvlErVC9nx65i13s-12" value="&lt;div&gt;RED_OFF&lt;/div&gt;&lt;div&gt;GREEN_ON&lt;br&gt;&lt;/div&gt;&lt;div&gt;&lt;br&gt;&lt;/div&gt;&lt;div&gt;&lt;br&gt;&lt;/div&gt;&lt;div&gt;estado = 1&lt;br&gt;&lt;/div&gt;" style="ellipse;whiteSpace=wrap;html=1;aspect=fixed;" vertex="1" parent="WIyWlLk6GJQsqaUBKTNV-1">
          <mxGeometry x="380" y="40" width="150" height="150" as="geometry" />
        </mxCell>
        <mxCell id="mCqznvlErVC9nx65i13s-22" style="edgeStyle=orthogonalEdgeStyle;rounded=0;orthogonalLoop=1;jettySize=auto;html=1;exitX=0;exitY=0.5;exitDx=0;exitDy=0;entryX=0;entryY=0.5;entryDx=0;entryDy=0;" edge="1" parent="WIyWlLk6GJQsqaUBKTNV-1" source="mCqznvlErVC9nx65i13s-14" target="mCqznvlErVC9nx65i13s-11">
          <mxGeometry relative="1" as="geometry" />
        </mxCell>
        <mxCell id="mCqznvlErVC9nx65i13s-27" value="BUTTON_ON" style="edgeLabel;html=1;align=center;verticalAlign=middle;resizable=0;points=[];" vertex="1" connectable="0" parent="mCqznvlErVC9nx65i13s-22">
          <mxGeometry x="-0.0333" y="1" relative="1" as="geometry">
            <mxPoint as="offset" />
          </mxGeometry>
        </mxCell>
        <mxCell id="mCqznvlErVC9nx65i13s-14" value="&lt;div&gt;RED_ON&lt;/div&gt;&lt;div&gt;GREEN_OFF&lt;br&gt;&lt;/div&gt;&lt;div&gt;&lt;br&gt;&lt;/div&gt;&lt;div&gt;&lt;br&gt;&lt;/div&gt;&lt;div&gt;estado = 2&lt;br&gt;&lt;/div&gt;" style="ellipse;whiteSpace=wrap;html=1;aspect=fixed;" vertex="1" parent="WIyWlLk6GJQsqaUBKTNV-1">
          <mxGeometry x="130" y="280" width="150" height="150" as="geometry" />
        </mxCell>
        <mxCell id="mCqznvlErVC9nx65i13s-15" value="&lt;div&gt;RED_ON&lt;/div&gt;&lt;div&gt;GREEN_ON&lt;br&gt;&lt;/div&gt;&lt;div&gt;&lt;br&gt;&lt;/div&gt;&lt;div&gt;&lt;br&gt;&lt;/div&gt;&lt;div&gt;estado = 3&lt;br&gt;&lt;/div&gt;" style="ellipse;whiteSpace=wrap;html=1;aspect=fixed;" vertex="1" parent="WIyWlLk6GJQsqaUBKTNV-1">
          <mxGeometry x="380" y="280" width="150" height="150" as="geometry" />
        </mxCell>
        <mxCell id="mCqznvlErVC9nx65i13s-23" style="edgeStyle=orthogonalEdgeStyle;rounded=0;orthogonalLoop=1;jettySize=auto;html=1;exitX=0.5;exitY=1;exitDx=0;exitDy=0;entryX=0.467;entryY=1;entryDx=0;entryDy=0;entryPerimeter=0;" edge="1" parent="WIyWlLk6GJQsqaUBKTNV-1" source="mCqznvlErVC9nx65i13s-15" target="mCqznvlErVC9nx65i13s-14">
          <mxGeometry relative="1" as="geometry" />
        </mxCell>
        <mxCell id="mCqznvlErVC9nx65i13s-26" value="BUTTON_ON" style="edgeLabel;html=1;align=center;verticalAlign=middle;resizable=0;points=[];" vertex="1" connectable="0" parent="mCqznvlErVC9nx65i13s-23">
          <mxGeometry x="0.1044" y="-2" relative="1" as="geometry">
            <mxPoint as="offset" />
          </mxGeometry>
        </mxCell>
      </root>
    </mxGraphModel>
  </diagram>
</mxfile>
